<svg width="1052" height="1067" viewBox="0 0 1052 1067" fill="none" xmlns="http://www.w3.org/2000/svg">
<g clip-path="url(#clip0_462_3404)">
<path d="M128.128 874.35C138.613 886.624 149.673 898.395 161.273 909.625C200.372 948.027 246.997 980.306 297.016 1004.72C315.446 1013.33 332.445 1022.25 352.362 1029.93C357.339 1031.84 362.423 1033.88 367.767 1035.72C373.156 1037.43 378.743 1039.13 384.585 1040.82C390.393 1042.63 396.585 1043.92 403.06 1045.25C409.541 1046.55 416.27 1048.03 423.497 1048.77C387.645 1041.23 352.699 1029.9 319.252 1014.97C285.596 999.821 253.617 981.207 223.834 959.432C164.185 915.827 113.165 859.841 75.8984 795.842C74.3602 793.929 72.0247 790.284 69.2254 785.64L64.724 778.033L60.183 769.28C57.1632 763.208 53.6853 757.046 51.0218 751.075C48.6334 745.854 46.1333 740.683 43.5232 735.568C55.1048 764.354 68.4733 789.533 83.4422 813.477C90.3371 824.458 97.6352 835.182 105.322 845.626C104.236 844.165 103.105 842.743 102.025 841.275C110.261 852.597 118.939 863.593 128.038 874.237L128.128 874.35ZM102.013 841.27L101.306 840.31L102.013 841.27ZM7.55146 598.411L4.82007 576.544C6.26776 589.89 7.94731 604.805 11.018 619.737L9.1688 609.133C8.48625 605.582 7.9467 602.006 7.55146 598.411ZM485.273 1047.23C522.89 1051.03 562.34 1049.89 600.981 1043.79C639.644 1037.71 677.46 1026.93 712.617 1013.04C647.867 1038.45 579.147 1049.76 511.92 1047.87C502.922 1047.72 494.055 1047.87 485.273 1047.23Z" fill="#D06676"/>
<path d="M262.543 970.435L261.079 969.504C261.571 969.814 262.051 970.13 262.543 970.435ZM317.12 1000.44C348.117 1014.83 380.583 1025.84 413.952 1033.26C359.166 1020.79 307.608 998.786 262.543 970.435C279.848 981.422 298.04 991.591 317.12 1000.44ZM1000.96 604.347C1001.51 595.431 1002.63 586.075 1002.91 581.622C1006.27 553.006 1007.27 528.571 1007.13 504.057C1006.51 499.639 1004.72 491.36 1004.02 481.948C1003.15 472.512 1001.88 463.274 1000.81 454.161C999.171 445.126 997.763 436.182 995.976 427.412C1008.84 492.969 1008.63 558.779 996.79 620.871C998.092 615.341 999.481 609.833 1000.96 604.347Z" fill="#D06676"/>
<path d="M5.01923 471.102C9.81471 432.164 20.0221 394.209 29.7318 368.922L25.8015 387.431C28.2276 382.008 32.1465 369.407 37.4906 356.072L41.3473 345.903L45.6056 336.045C48.4331 329.662 50.8082 323.613 53.3134 318.974C51.5999 323.325 49.9486 328.015 47.9581 332.721C46.0071 337.444 43.8186 342.241 41.7318 347.066L50.2936 327.828C41.6549 349.424 34.2185 371.479 28.0183 393.893C21.6112 418.452 16.5442 444.263 13.8185 467.434C13.0268 473.213 12.7497 478.856 12.2351 484.239C11.8562 489.623 11.2002 494.758 11.1493 499.611C10.9118 509.312 10.5838 517.805 10.7478 524.599C11.3416 538.193 12.1616 544.971 13.3435 541.184C15.6677 533.662 15.6225 494.978 23.7318 446.566C28.0692 422.436 34.2954 395.969 42.7441 370.039C51.1305 344.086 62.124 318.924 73.5076 296.723L70.1598 304.014L67.0778 311.525L60.7668 326.711L54.976 342.399L52.0297 350.311C51.1645 352.997 50.2879 355.694 49.4227 358.403C41.958 379.886 36.3765 402.51 31.5132 425.314L28.352 442.537C27.1927 448.259 26.7007 454.082 25.8411 459.844C24.0428 471.362 23.3868 482.964 22.3859 494.431C21.2605 517.421 21.0343 540.129 23.1211 561.844C23.0362 556.686 22.9514 552.104 23.0249 547.668L23.6752 534.379C23.9467 529.813 23.8958 524.971 24.3256 519.424C24.7214 513.877 25.0834 507.625 25.4 500.226C27.6112 462.936 34.2898 426.019 44.6725 390.292C54.5688 354.413 66.2409 322.817 83.6301 294.19L88.1598 285.578C91.2249 279.8 93.7753 274.1 97.0157 268.288C100.708 261.911 104.243 257.137 107.104 252.763C110.051 248.435 112.55 244.632 115.412 240.941L136.233 212.263C136.658 212.212 136.109 213.307 135.102 214.932C138.536 210.05 142.234 205.359 146.181 200.88C150.45 195.943 154.595 190.706 158.107 186.383C158.933 186.344 159.736 186.321 161.63 184.967C210.547 133.067 270.745 90.7715 338.583 64.1076L353.665 58.2444L368.933 53.1712L376.528 50.6431L384.219 48.4987L399.544 44.2494C408.309 42.1445 417.188 40.0114 426.242 38.0928L440.023 35.6888C444.654 34.8931 449.309 33.9959 454.07 33.5557C463.537 32.4214 471.793 30.0287 476.244 29.4418C500.951 28.0367 525.612 28.3189 554.56 30.6608C556.806 30.7003 560.3 30.9034 564.355 31.1235C568.41 31.3549 573.047 31.4677 577.543 31.8797C582.813 33.0647 588.44 34.2385 594.344 35.3841C630.361 40.9595 665.185 50.9253 698.318 64.181L698.278 64.023L710.968 69.068L723.918 75.0384C732.802 78.8983 741.505 83.8361 750.497 88.486C755.01 90.7828 759.285 93.5874 763.718 96.1268C768.073 98.8017 772.631 101.172 776.838 104.095C785.366 109.749 794.012 115.161 801.98 121.205C814.828 130.456 827.28 140.242 839.304 150.538C839.564 150.775 839.835 150.995 840.096 151.226L840.333 151.441L848.572 158.901L856.456 166.751L864.344 174.606C866.957 177.241 869.377 180.063 871.905 182.783C870.684 180.808 870.729 180.012 870.774 179.228C866.878 175.503 862.269 171.096 857.717 166.756C865.311 173.652 871.939 179.888 877.379 184.978C879.477 187.653 881.768 190.283 883.939 193.155L890.646 201.992L897.777 211.185L904.874 221.072C917.462 237.087 928.574 254.219 939.127 271.69C944.013 280.652 949.402 289.359 953.751 298.631L960.61 312.378L966.786 326.468C968.561 329.476 967.871 326.593 968.092 326.085C975.019 342.8 980.59 360.181 985.634 377.697C995.277 409.352 1001.73 441.888 1004.91 474.821C1006.18 482.597 1006.72 490.464 1007.85 498.257L1007.15 514.757C1007.15 520.982 1007.47 527.206 1007.21 533.442L1006.48 552.211C1006.39 556.443 1005.78 561.065 1005.43 566.087C1004.95 571.099 1004.7 576.505 1003.98 582.204L1001.65 600.217C1000.9 606.532 999.461 613.021 998.352 619.805C992.833 649.59 984.672 678.827 973.968 707.172C972.599 711.833 971.553 715.557 970.62 717.64C967.074 726.11 963.291 734.309 959.638 742.385C955.549 750.251 951.8 758.118 947.609 765.567C934.65 790.089 919.611 813.46 902.657 835.423C900.757 837.901 898.987 840.417 897.076 842.742L891.432 849.548C887.7 853.944 884.363 858.34 880.823 862.155C873.749 869.784 867.811 876.861 862.241 882.182C855.862 888.83 856.433 889.14 860.85 885.935C863.949 883.65 866.982 881.275 869.943 878.813L881.943 868.012C886.331 864.192 890.533 859.88 894.582 855.817C898.586 851.726 902.589 847.996 905.677 844.621C911.903 837.9 915.992 833.753 915.121 835.598C905.072 854.474 886.772 877.758 860.024 903.513C846.378 916.081 831.025 929.737 812.866 942.902C804.011 949.793 794.165 956.096 784.127 962.981C773.756 969.318 763.158 976.259 751.571 982.421C726.214 996.202 770.601 974.098 771.799 973.889C767.519 977.253 763.029 980.344 758.357 983.144C749.999 987.579 741.715 992.156 733.057 995.97C727.995 998.29 723.025 1000.8 717.907 1002.96L702.474 1009.29L710.64 1006.09C727.334 999.469 742.936 991.67 757.023 983.956C751.73 987.15 745.939 990.846 739.594 994.182C732.791 997.692 725.75 1001.53 718.687 1004.95L698.188 1014.47C771.522 987.884 838.914 943.89 892.263 886.539C918.972 857.951 942.791 826.547 962.211 792.575C981.751 758.672 997.469 722.715 1009.08 685.361C991.244 741.397 963.438 792.874 930.017 836.399C990.774 754.534 1027 654.166 1031.8 550.653C1031.8 556.359 1031.23 562.041 1030.85 567.724C1030.38 573.407 1030.16 579.112 1029.49 584.778C1028.04 596.092 1026.99 607.469 1024.81 618.687C1021.28 641.26 1015.56 663.443 1009.08 685.361C1021.87 645.74 1029.51 603.964 1032.52 561.951C1035.65 519.904 1033.04 477.603 1026.54 436.611C1037.71 490.91 1039.55 552.431 1030.04 613.23C1036.73 574.016 1038.42 533.594 1035.86 493.517C1035.28 478.207 1033.47 463.004 1031.98 448.93C1029.85 434.958 1028.24 422.058 1026.18 411.623C1034.35 450.144 1037.57 482.998 1039.14 513.967C1037.63 446.38 1023.6 377.9 996.051 313.574C1011.09 348.511 1023.43 386.094 1030.97 424.732C1038.55 463.332 1041.7 502.822 1039.91 540.812C1039.82 536.365 1040.01 531.924 1039.75 527.46L1039.14 513.967C1040.77 575.195 1031.32 635.882 1012.59 692.951C1003.19 721.483 991.577 749.207 977.525 775.589C963.5 801.93 947.309 827.065 929.117 850.733C949.888 826.524 971.819 792.304 989.321 754.715C1006.74 717.047 1019.68 676.309 1028.57 640.729C1015.49 704.621 989.513 767.666 951.828 823.968C914.245 880.314 865.017 929.855 808.06 967.879C751.17 1006.02 686.623 1032.42 620.385 1045.46C587.496 1051.98 554.065 1055.4 520.534 1055.67C487.614 1055.84 454.749 1052.98 422.357 1047.12L439.35 1050.34C445.016 1051.41 450.762 1052.01 456.462 1052.85C467.863 1054.68 479.393 1055.37 490.885 1056.43C513.918 1057.72 537.075 1058.15 560.159 1056.4C583.283 1055.17 606.259 1051.73 629.128 1047.53C640.472 1044.95 651.952 1042.85 663.154 1039.55C668.776 1037.98 674.465 1036.61 680.046 1034.86L696.757 1029.46C688.319 1032.06 679.441 1035.52 669.958 1038.05L658.076 1041.54C683.01 1034.9 707.413 1026.42 731.083 1016.17C741.911 1011.45 752.569 1006.36 763.04 1000.9C743.422 1011.29 723.188 1020.47 702.451 1028.4C662.908 1043.12 621.815 1053.31 579.963 1058.77C573.686 1059.76 567.963 1060.07 562.834 1060.61L549.103 1061.96C541.022 1062.6 535.056 1062.89 530.883 1063.34C522.53 1064.17 521.343 1064.95 524.668 1065.58C527.987 1066.22 535.814 1066.73 545.439 1067C555.035 1066.94 566.419 1066.43 576.773 1065.49C680.81 1054.84 776.329 1014.1 852.876 953.1C929.474 892.092 988.139 811.05 1020.84 719.096C1022.89 713.757 1024.47 708.249 1026.18 702.787C1027.83 697.307 1029.66 691.884 1031.16 686.354C1033.94 675.237 1037.23 664.25 1039.35 652.964L1042.85 636.119L1045.61 619.122L1046.97 610.617L1047.94 602.057L1049.88 584.935C1053.82 539.147 1052.26 492.868 1045.28 447.452C1041.55 421.753 1034.99 391.24 1026.54 364.063L1020.03 344.402C1017.77 338.155 1015.37 332.264 1013.23 326.722L1010.08 318.737L1006.85 311.565L1001.3 299.579C983.581 263.694 961.312 229.469 935.242 197.636C909.2 165.791 879.279 136.306 845.547 110.63L832.857 101.019L819.698 91.9452L813.104 87.3969L806.301 83.1307L792.633 74.6208C773.999 63.8763 754.913 53.5211 734.793 44.9323C714.881 35.9145 694.042 28.5954 672.83 22.0493C662.114 19.1149 651.448 15.8419 640.461 13.5903C634.987 12.4108 629.558 10.9775 624.021 9.98994L607.373 7.04987C567.561 0.0580164 526.149 -1.60671 484.777 1.49702C443.427 4.68539 401.902 12.5181 362.085 26.039L347.184 31.1912C342.202 32.8672 337.401 35.0398 332.498 36.9416C327.646 38.9675 322.686 40.7394 317.925 42.9741L303.606 49.5935C298.788 51.7153 294.134 54.1531 289.491 56.6192L275.529 63.9383L261.945 71.9065C257.421 74.57 252.863 77.1715 248.532 80.1342L235.389 88.7569C230.967 91.5615 226.873 94.8402 222.603 97.8536C218.413 100.98 214.064 103.892 210.015 107.187L197.817 116.99C193.694 120.178 189.804 123.637 185.924 127.102L174.258 137.429L163.112 148.258C159.402 151.864 155.653 155.431 152.198 159.268C123.747 189.165 98.7518 221.783 78.3087 256.296C58.2619 290.154 41.8343 326.019 29.2964 363.301C4.55551 436.211 -2.54158 510.153 0.760969 576.939C0.0484325 549.446 -0.0703236 510.017 5.01923 471.102ZM803.128 981.501C820.313 970.417 836.861 958.38 852.695 945.447C836.635 958.647 820.133 970.836 803.128 981.501ZM1030.56 675.181C1028.87 680.265 1027.44 685.287 1025.57 690.084L1020.16 704.322L1017.52 711.364L1014.62 718.311C1012.68 722.992 1010.8 727.697 1008.98 732.424C998.513 758.449 986.06 783.635 971.734 807.76C957.477 831.885 940.953 854.491 923.298 875.704C914.578 886.42 905.078 896.358 895.736 906.295L881.14 920.533C876.35 925.318 871.108 929.585 866.143 934.099C861.981 937.711 857.784 941.243 853.56 944.719C869.25 931.859 884.16 918.081 898.212 903.457C877.881 924.487 855.764 943.722 832.111 960.949C826.252 965.023 820.591 969.391 814.506 973.229L796.144 984.904L776.748 995.903C770.148 999.559 763.181 1002.81 756.197 1006.37C761.199 1003.43 766.261 1000.59 771.381 997.861C777.155 994.661 783.211 990.88 789.126 987.421C795.087 984.03 800.504 980.305 805.006 977.19C809.507 974.075 813.036 971.49 814.874 969.82C812.25 971.598 809.581 973.302 806.923 975.034C809.782 973.153 812.623 971.244 815.445 969.307C815.326 969.436 815.078 969.64 814.874 969.82C876.695 927.688 929.361 872.324 968.821 809.205C1008.46 746.143 1034.25 675.006 1044.94 602.661C1042.62 631.678 1037.29 654.848 1030.56 675.181ZM945.155 234.734C962.174 260.383 976.883 287.486 989.112 315.724C990.526 318.822 991.86 321.965 993.178 325.114C1021.24 393.701 1034.01 467.276 1032.14 539.757C1032.62 515.773 1031.02 491.801 1028.36 468.032C1025.34 440.64 1019.77 413.576 1012.39 387.104C997.9 334.019 974.369 283.705 944.499 237.837C947.242 241.618 950.132 245.715 953.123 250.06C956.326 254.557 959.326 259.195 962.115 263.959L958.507 257.701L954.61 251.612L946.818 239.446C941.513 231.41 935.762 223.667 930.226 215.79C924.22 208.262 918.526 200.485 912.277 193.155C907.549 187.777 903.019 182.219 898.224 176.908C915.144 194.712 931.029 213.814 945.155 234.734ZM547.899 6.50248C556.195 6.94265 564.508 7.74962 572.821 8.37036C579.629 8.94032 586.404 9.9448 593.111 10.701C595.124 10.7856 597.25 10.9211 599.92 11.2201C602.583 11.5869 605.767 12.2698 609.923 13.2178C640.851 18.3644 669.07 26.1011 689.1 34.0918C727.543 48.6116 763.311 66.6753 795.754 87.538C828.209 108.361 857.332 132.045 881.971 157.914C893.327 170.21 890.013 167.529 883.753 161.559L893.151 171.514C888.989 167.371 884.9 163.173 880.676 159.121L867.664 147.327C870.831 150.092 878.51 156.712 883.753 161.559C841.967 119.015 793.125 83.6893 740.255 57.7027C687.347 31.7273 630.372 15.6839 573.42 9.27891C582.57 10.2947 587.06 10.5204 591.335 10.6333C585.2 9.91658 579.047 8.93467 572.821 8.37036C564.457 7.82298 556.11 7.07808 547.808 6.67178L523.152 6.09053C531.318 6.08489 539.592 6.31061 547.899 6.50248Z" fill="#D06676"/>
<path d="M655.66 1042.23L658.069 1041.53C655.547 1042.2 653.064 1042.95 650.525 1043.59C652.244 1043.16 653.969 1042.75 655.66 1042.23ZM907.208 824.751C931.157 793.223 952.318 755.549 965.828 723.096L965.664 723.129C931.389 803.95 875.794 873.575 806.418 924.838C818.736 916.294 830.837 907.445 842.712 898.298C857.969 882.384 883.502 856.505 907.208 824.751ZM199.908 918.963C240.466 955.147 289.377 986.636 343.818 1007.85C365.047 1015.82 386.711 1022.81 408.868 1027.73C419.861 1030.56 431.086 1032.31 442.227 1034.39C447.808 1035.38 453.463 1035.93 459.073 1036.72C464.694 1037.45 470.304 1038.27 475.965 1038.6C450.41 1035.77 425.041 1031.54 400.346 1024.83C375.667 1018.14 351.475 1009.87 328.136 999.722C304.919 989.408 282.445 977.502 260.875 964.091C239.465 950.503 219.163 935.328 199.908 918.963ZM700.533 983.47L687.984 988.385L675.17 992.651C666.687 995.699 657.939 997.978 649.213 1000.4C657.984 998.198 666.806 996.144 675.362 993.323L688.272 989.384L700.883 984.785C700.397 984.536 697.524 985.095 700.533 983.47ZM552.404 1015.57C545.844 1016.13 539.251 1016.08 532.645 1016.14C526.04 1016.22 519.424 1016.36 512.802 1015.93L521.714 1016.76C524.44 1016.94 526.894 1017.15 529.038 1017.4C536.847 1016.74 544.6 1016.55 552.404 1015.57ZM290.903 954.87C298.487 959.312 306.54 963.222 314.53 967.534C316.532 968.628 320.163 969.876 324.715 971.535C314.983 967.364 305.657 962.195 296.18 957.399C291.486 954.91 286.967 952.122 282.364 949.526C277.772 946.908 273.197 944.295 268.854 941.372L274.153 944.905L279.678 948.2L290.903 954.87Z" fill="#D06676"/>
<path d="M680.367 314.443C668.648 310.752 656.275 309.154 644.455 305.731C634.782 302.928 624.585 300.188 616.33 294.813C609.44 290.327 605.026 282.055 599.516 275.463C571.477 275.463 543.434 275.463 515.395 275.463C498.021 281.686 486.474 291.29 492.855 312.237C493.839 315.462 492.552 319.419 492.144 323.017C489.664 344.831 496.476 363.759 510.024 380.604C512.294 383.43 514.786 386.099 516.839 389.074C518.504 391.485 519.667 394.243 522.618 399.79C495.118 376.017 480.586 348.395 471.096 317.952C467.655 306.907 462.037 302.126 450.602 305.642C424.448 313.686 398.089 321.125 372.223 329.997C355.009 335.902 352.802 345.659 362.801 360.918C370.431 372.56 378.444 384.061 384.874 396.36C407.021 438.74 441.191 463.021 489.193 467.164C520.767 469.889 553.605 465.541 582.369 483.707C587.569 486.992 593.355 490.262 596.946 494.987C604.42 504.823 610.3 515.849 617.553 525.868C619.165 528.096 624.551 529.858 626.721 528.805C628.902 527.745 630.82 522.475 630.091 519.802C627.929 511.919 624.851 504.192 621.297 496.805C615.436 484.614 605.325 473.2 617.467 459.102C618.903 457.433 619.281 453.891 618.682 451.599C614.112 434.127 625.412 423.832 635.59 412.836C648.259 399.144 661.47 385.841 672.969 371.213C680.517 361.613 686.289 350.34 691.316 339.131C696.358 327.881 692.532 318.273 680.367 314.443ZM542.207 457.59C441.509 452.592 418.471 431.581 378.604 342.375C401.582 335.551 424.044 328.332 446.888 322.67C450.512 321.77 457.511 326.828 460.167 330.927C473.793 351.967 485.625 374.21 499.973 394.714C505.812 403.06 516.106 408.554 524.952 414.489C535.95 421.869 547.545 428.36 559.866 435.836C552.819 444.522 547.646 450.894 542.207 457.59ZM590.905 362.456C587.221 380.608 585.003 399.062 581.083 417.158C579.949 422.395 575.173 426.844 570.011 434.84C551.54 413.272 536.196 394.736 520.15 376.831C508.685 364.039 504.088 349.582 505.498 332.696C506.31 322.969 505.588 313.055 507.103 303.469C507.72 299.569 512.302 293.365 515.317 293.223C541.452 291.999 567.684 290.905 593.8 291.92C606.803 292.428 603.776 304.891 602.385 312.73C599.419 329.456 594.287 345.786 590.905 362.456ZM662.933 360.034C647.608 378.794 631.224 396.729 614.602 414.37C611.452 417.711 605.198 418.14 596.756 421.249C604.169 382.288 610.64 348.265 617.284 313.357C639.143 318.669 657.973 323.245 680.79 328.788C673.825 341.225 669.722 351.721 662.933 360.034Z" fill="#D06676"/>
<path d="M286.39 597.957C330.653 597.957 358.969 615.789 358.969 652.276C358.969 692.056 325.429 719.49 273.744 719.49H237.454V774.358C237.454 784.234 247.077 787.252 258.348 788.624V789.996H188.519V788.624C199.79 787.252 209.413 784.234 209.413 774.358V613.594C209.413 603.718 199.79 600.7 188.519 599.329V597.957H286.39ZM280.342 714.552C316.082 714.552 331.477 704.401 331.477 662.701C331.477 633.073 323.505 602.346 271.82 602.346H237.454V708.516C252.575 712.631 267.421 714.552 280.342 714.552ZM505.227 762.562L506.602 763.659C498.354 779.022 476.086 791.916 447.769 791.916C409.555 791.916 378.214 768.048 378.214 726.623C378.214 682.454 414.503 655.294 454.367 655.294C511.55 655.294 517.874 713.729 483.509 713.729H404.881C405.156 751.314 426.6 779.845 459.59 779.845C474.161 779.845 496.705 774.358 505.227 762.562ZM444.47 660.232C422.201 660.232 406.256 678.339 404.881 709.339L472.512 708.516C489.282 708.242 480.209 660.232 444.47 660.232ZM556.088 794.385L535.743 787.527L536.568 771.066V640.48C536.568 628.957 531.345 630.055 513.475 635.267V633.621L564.06 610.302L561.861 621.55V656.94H595.126L593.752 663.524H561.861V785.057L595.126 783.96V785.057L561.861 794.385H556.088ZM690.524 655.569C695.472 655.569 699.871 656.392 705.095 658.861L681.451 697.268H680.352C687.775 678.888 681.177 670.932 672.379 670.932C658.358 670.932 649.561 688.489 646.811 707.693V764.482C646.811 779.296 649.286 784.509 657.533 789.996H620.144L621.519 771.066V665.719C617.67 663.25 610.522 661.33 604.749 660.781V659.684L648.186 655.569L646.811 675.87V684.649H650.385C656.709 667.091 672.104 655.569 690.524 655.569ZM851.078 767.5C851.078 782.314 853.552 786.978 861.799 792.465V793.288L818.912 784.783C818.912 784.783 819.187 784.783 819.187 784.509C810.389 789.173 799.392 791.916 786.471 791.916C748.257 791.916 720.215 768.597 720.215 728.818C720.215 689.312 748.257 655.294 805.441 655.294C823.036 655.294 837.331 658.586 851.078 665.445V767.5ZM746.883 714.003C746.883 753.234 770.801 784.234 802.417 784.234C813.138 784.234 819.737 780.668 825.235 774.633C825.51 771.889 825.785 768.323 825.785 763.933V675.595C817.537 666.817 806.815 660.507 791.695 660.507C763.378 660.507 746.883 681.631 746.883 714.003Z" fill="#D06676"/>
</g>
<defs>
<clipPath id="clip0_462_3404">
<rect width="1052" height="1067" fill="white"/>
</clipPath>
</defs>
</svg>
